<mxfile host="app.diagrams.net" agent="Mozilla/5.0 (Windows NT 10.0; Win64; x64) AppleWebKit/537.36 (KHTML, like Gecko) Chrome/136.0.0.0 Safari/537.36" version="27.0.6">
  <diagram id="C5RBs43oDa-KdzZeNtuy" name="Page-1">
    <mxGraphModel grid="1" page="1" gridSize="10" guides="1" tooltips="1" connect="1" arrows="1" fold="1" pageScale="1" pageWidth="827" pageHeight="1169" math="0" shadow="0">
      <root>
        <mxCell id="WIyWlLk6GJQsqaUBKTNV-0" />
        <mxCell id="WIyWlLk6GJQsqaUBKTNV-1" parent="WIyWlLk6GJQsqaUBKTNV-0" />
        <mxCell id="1SzBsBPXZqBtcYk88lzq-5" style="edgeStyle=orthogonalEdgeStyle;rounded=0;orthogonalLoop=1;jettySize=auto;html=1;exitX=1;exitY=0.5;exitDx=0;exitDy=0;entryX=0;entryY=0.5;entryDx=0;entryDy=0;" edge="1" parent="WIyWlLk6GJQsqaUBKTNV-1" source="1SzBsBPXZqBtcYk88lzq-0" target="1SzBsBPXZqBtcYk88lzq-4">
          <mxGeometry relative="1" as="geometry" />
        </mxCell>
        <mxCell id="1SzBsBPXZqBtcYk88lzq-0" value="" style="ellipse;html=1;shape=endState;fillColor=#000000;strokeColor=#FFFF00;" vertex="1" parent="WIyWlLk6GJQsqaUBKTNV-1">
          <mxGeometry x="100" y="172" width="30" height="30" as="geometry" />
        </mxCell>
        <mxCell id="1SzBsBPXZqBtcYk88lzq-4" value="Iniciar Cliente" style="rounded=1;whiteSpace=wrap;html=1;" vertex="1" parent="WIyWlLk6GJQsqaUBKTNV-1">
          <mxGeometry x="180" y="168.25" width="100" height="37.5" as="geometry" />
        </mxCell>
        <mxCell id="1SzBsBPXZqBtcYk88lzq-33" style="edgeStyle=orthogonalEdgeStyle;rounded=0;orthogonalLoop=1;jettySize=auto;html=1;entryX=0;entryY=0.5;entryDx=0;entryDy=0;" edge="1" parent="WIyWlLk6GJQsqaUBKTNV-1" source="1SzBsBPXZqBtcYk88lzq-4" target="1SzBsBPXZqBtcYk88lzq-38">
          <mxGeometry relative="1" as="geometry">
            <mxPoint x="520.0000000000002" y="98.75000000000011" as="targetPoint" />
            <mxPoint x="390" y="145" as="sourcePoint" />
          </mxGeometry>
        </mxCell>
        <mxCell id="1SzBsBPXZqBtcYk88lzq-40" style="edgeStyle=orthogonalEdgeStyle;rounded=0;orthogonalLoop=1;jettySize=auto;html=1;exitX=1;exitY=0.5;exitDx=0;exitDy=0;entryX=0;entryY=0.5;entryDx=0;entryDy=0;" edge="1" parent="WIyWlLk6GJQsqaUBKTNV-1" source="1SzBsBPXZqBtcYk88lzq-38" target="1SzBsBPXZqBtcYk88lzq-39">
          <mxGeometry relative="1" as="geometry" />
        </mxCell>
        <mxCell id="1SzBsBPXZqBtcYk88lzq-41" value="Sim" style="edgeLabel;html=1;align=center;verticalAlign=middle;resizable=0;points=[];" connectable="0" vertex="1" parent="1SzBsBPXZqBtcYk88lzq-40">
          <mxGeometry x="-0.0778" y="-1" relative="1" as="geometry">
            <mxPoint x="892" y="409" as="offset" />
          </mxGeometry>
        </mxCell>
        <mxCell id="1SzBsBPXZqBtcYk88lzq-46" value="Sim" style="edgeLabel;html=1;align=center;verticalAlign=middle;resizable=0;points=[];" connectable="0" vertex="1" parent="1SzBsBPXZqBtcYk88lzq-40">
          <mxGeometry x="-0.2259" y="-1" relative="1" as="geometry">
            <mxPoint x="4" y="-1" as="offset" />
          </mxGeometry>
        </mxCell>
        <mxCell id="1SzBsBPXZqBtcYk88lzq-43" style="edgeStyle=orthogonalEdgeStyle;rounded=0;orthogonalLoop=1;jettySize=auto;html=1;exitX=0.5;exitY=0;exitDx=0;exitDy=0;entryX=0;entryY=0.5;entryDx=0;entryDy=0;" edge="1" parent="WIyWlLk6GJQsqaUBKTNV-1" source="1SzBsBPXZqBtcYk88lzq-38" target="1SzBsBPXZqBtcYk88lzq-42">
          <mxGeometry relative="1" as="geometry" />
        </mxCell>
        <mxCell id="1SzBsBPXZqBtcYk88lzq-44" value="Não" style="edgeLabel;html=1;align=center;verticalAlign=middle;resizable=0;points=[];" connectable="0" vertex="1" parent="1SzBsBPXZqBtcYk88lzq-43">
          <mxGeometry x="0.3711" relative="1" as="geometry">
            <mxPoint x="31" as="offset" />
          </mxGeometry>
        </mxCell>
        <mxCell id="1SzBsBPXZqBtcYk88lzq-38" value="É cadastrado?" style="rhombus;whiteSpace=wrap;html=1;" vertex="1" parent="WIyWlLk6GJQsqaUBKTNV-1">
          <mxGeometry x="370" y="147" width="120" height="80" as="geometry" />
        </mxCell>
        <mxCell id="RYv_guV0oGGCcxDcEiJ_-1" style="edgeStyle=orthogonalEdgeStyle;rounded=0;orthogonalLoop=1;jettySize=auto;html=1;exitX=1;exitY=0.5;exitDx=0;exitDy=0;entryX=0;entryY=0.5;entryDx=0;entryDy=0;" edge="1" parent="WIyWlLk6GJQsqaUBKTNV-1" source="1SzBsBPXZqBtcYk88lzq-39" target="RYv_guV0oGGCcxDcEiJ_-0">
          <mxGeometry relative="1" as="geometry" />
        </mxCell>
        <mxCell id="RYv_guV0oGGCcxDcEiJ_-2" value="Acessar&lt;div&gt;tela&lt;/div&gt;&lt;div&gt;principal&lt;/div&gt;" style="edgeLabel;html=1;align=center;verticalAlign=middle;resizable=0;points=[];" connectable="0" vertex="1" parent="RYv_guV0oGGCcxDcEiJ_-1">
          <mxGeometry x="-0.1241" relative="1" as="geometry">
            <mxPoint x="2" as="offset" />
          </mxGeometry>
        </mxCell>
        <mxCell id="1SzBsBPXZqBtcYk88lzq-39" value="Logar-se" style="rounded=1;whiteSpace=wrap;html=1;" vertex="1" parent="WIyWlLk6GJQsqaUBKTNV-1">
          <mxGeometry x="566" y="168.25" width="100" height="37.5" as="geometry" />
        </mxCell>
        <mxCell id="1SzBsBPXZqBtcYk88lzq-45" style="edgeStyle=orthogonalEdgeStyle;rounded=0;orthogonalLoop=1;jettySize=auto;html=1;exitX=0.5;exitY=1;exitDx=0;exitDy=0;entryX=0.5;entryY=0;entryDx=0;entryDy=0;" edge="1" parent="WIyWlLk6GJQsqaUBKTNV-1" source="1SzBsBPXZqBtcYk88lzq-42" target="1SzBsBPXZqBtcYk88lzq-39">
          <mxGeometry relative="1" as="geometry" />
        </mxCell>
        <mxCell id="1SzBsBPXZqBtcYk88lzq-42" value="Cadastrar-se" style="rounded=1;whiteSpace=wrap;html=1;" vertex="1" parent="WIyWlLk6GJQsqaUBKTNV-1">
          <mxGeometry x="566" y="50" width="100" height="37.5" as="geometry" />
        </mxCell>
        <mxCell id="XJXXXrBX6UF0R7sf1k8g-0" style="edgeStyle=orthogonalEdgeStyle;rounded=0;orthogonalLoop=1;jettySize=auto;html=1;exitX=1;exitY=0.5;exitDx=0;exitDy=0;entryX=0;entryY=0.5;entryDx=0;entryDy=0;" edge="1" parent="WIyWlLk6GJQsqaUBKTNV-1" source="XJXXXrBX6UF0R7sf1k8g-1" target="XJXXXrBX6UF0R7sf1k8g-3">
          <mxGeometry relative="1" as="geometry" />
        </mxCell>
        <mxCell id="XJXXXrBX6UF0R7sf1k8g-1" value="" style="ellipse;html=1;shape=endState;fillColor=#000000;strokeColor=#00FFFF;" vertex="1" parent="WIyWlLk6GJQsqaUBKTNV-1">
          <mxGeometry x="100" y="440" width="30" height="30" as="geometry" />
        </mxCell>
        <mxCell id="XJXXXrBX6UF0R7sf1k8g-2" style="edgeStyle=orthogonalEdgeStyle;rounded=0;orthogonalLoop=1;jettySize=auto;html=1;exitX=1;exitY=0.5;exitDx=0;exitDy=0;entryX=0;entryY=0.5;entryDx=0;entryDy=0;" edge="1" parent="WIyWlLk6GJQsqaUBKTNV-1" source="XJXXXrBX6UF0R7sf1k8g-3" target="XJXXXrBX6UF0R7sf1k8g-7">
          <mxGeometry relative="1" as="geometry" />
        </mxCell>
        <mxCell id="XJXXXrBX6UF0R7sf1k8g-3" value="Iniciar Dev/Adm" style="rounded=1;whiteSpace=wrap;html=1;" vertex="1" parent="WIyWlLk6GJQsqaUBKTNV-1">
          <mxGeometry x="180" y="436.25" width="100" height="37.5" as="geometry" />
        </mxCell>
        <mxCell id="XJXXXrBX6UF0R7sf1k8g-12" style="edgeStyle=orthogonalEdgeStyle;rounded=0;orthogonalLoop=1;jettySize=auto;html=1;" edge="1" parent="WIyWlLk6GJQsqaUBKTNV-1" source="XJXXXrBX6UF0R7sf1k8g-7" target="XJXXXrBX6UF0R7sf1k8g-10">
          <mxGeometry relative="1" as="geometry" />
        </mxCell>
        <mxCell id="XJXXXrBX6UF0R7sf1k8g-7" value="É desenvolvedor ou admnistrador?" style="rhombus;whiteSpace=wrap;html=1;" vertex="1" parent="WIyWlLk6GJQsqaUBKTNV-1">
          <mxGeometry x="329" y="402.5" width="150" height="105" as="geometry" />
        </mxCell>
        <mxCell id="dobvGp4MOFqiP2ddSErw-1" value="" style="edgeStyle=orthogonalEdgeStyle;rounded=0;orthogonalLoop=1;jettySize=auto;html=1;" edge="1" parent="WIyWlLk6GJQsqaUBKTNV-1" source="XJXXXrBX6UF0R7sf1k8g-9" target="dobvGp4MOFqiP2ddSErw-0">
          <mxGeometry relative="1" as="geometry" />
        </mxCell>
        <mxCell id="XJXXXrBX6UF0R7sf1k8g-9" value="Logar-se" style="rounded=1;whiteSpace=wrap;html=1;" vertex="1" parent="WIyWlLk6GJQsqaUBKTNV-1">
          <mxGeometry x="570" y="383.75" width="100" height="37.5" as="geometry" />
        </mxCell>
        <mxCell id="dobvGp4MOFqiP2ddSErw-3" value="" style="edgeStyle=orthogonalEdgeStyle;rounded=0;orthogonalLoop=1;jettySize=auto;html=1;" edge="1" parent="WIyWlLk6GJQsqaUBKTNV-1" source="XJXXXrBX6UF0R7sf1k8g-10" target="dobvGp4MOFqiP2ddSErw-2">
          <mxGeometry relative="1" as="geometry" />
        </mxCell>
        <mxCell id="XJXXXrBX6UF0R7sf1k8g-10" value="Logar-se" style="rounded=1;whiteSpace=wrap;html=1;" vertex="1" parent="WIyWlLk6GJQsqaUBKTNV-1">
          <mxGeometry x="570" y="481.25" width="100" height="37.5" as="geometry" />
        </mxCell>
        <mxCell id="XJXXXrBX6UF0R7sf1k8g-6" value="Adm" style="edgeLabel;html=1;align=center;verticalAlign=middle;resizable=0;points=[];" connectable="0" vertex="1" parent="WIyWlLk6GJQsqaUBKTNV-1">
          <mxGeometry x="520.0003806804452" y="499.99953838908755" as="geometry">
            <mxPoint x="7" y="3" as="offset" />
          </mxGeometry>
        </mxCell>
        <mxCell id="XJXXXrBX6UF0R7sf1k8g-11" style="edgeStyle=orthogonalEdgeStyle;rounded=0;orthogonalLoop=1;jettySize=auto;html=1;" edge="1" parent="WIyWlLk6GJQsqaUBKTNV-1" source="XJXXXrBX6UF0R7sf1k8g-7" target="XJXXXrBX6UF0R7sf1k8g-9">
          <mxGeometry relative="1" as="geometry" />
        </mxCell>
        <mxCell id="XJXXXrBX6UF0R7sf1k8g-4" value="Dev" style="edgeLabel;html=1;align=center;verticalAlign=middle;resizable=0;points=[];" connectable="0" vertex="1" parent="WIyWlLk6GJQsqaUBKTNV-1">
          <mxGeometry x="520" y="402.5" as="geometry" />
        </mxCell>
        <mxCell id="dobvGp4MOFqiP2ddSErw-0" value="" style="whiteSpace=wrap;html=1;rounded=1;" vertex="1" parent="WIyWlLk6GJQsqaUBKTNV-1">
          <mxGeometry x="740" y="372.5" width="120" height="60" as="geometry" />
        </mxCell>
        <mxCell id="RYv_guV0oGGCcxDcEiJ_-0" value="Logar-se" style="rounded=1;whiteSpace=wrap;html=1;" vertex="1" parent="WIyWlLk6GJQsqaUBKTNV-1">
          <mxGeometry x="740" y="168.5" width="100" height="37.5" as="geometry" />
        </mxCell>
        <mxCell id="dobvGp4MOFqiP2ddSErw-2" value="" style="whiteSpace=wrap;html=1;rounded=1;" vertex="1" parent="WIyWlLk6GJQsqaUBKTNV-1">
          <mxGeometry x="740" y="470" width="120" height="60" as="geometry" />
        </mxCell>
      </root>
    </mxGraphModel>
  </diagram>
</mxfile>
